<?xml version="1.0" encoding="UTF-8"?><svg id="Layer_1" xmlns="http://www.w3.org/2000/svg" xmlns:xlink="http://www.w3.org/1999/xlink" viewBox="0 0 980 1050"><defs><style>.cls-1{fill:#c5a0fe;stroke:#c5a0fe;}.cls-1,.cls-2,.cls-3,.cls-4,.cls-5,.cls-6{stroke-linecap:round;stroke-miterlimit:10;}.cls-1,.cls-2,.cls-4,.cls-6{stroke-width:35px;}.cls-2{fill:#ea8fb7;stroke:#ea8fb7;}.cls-7{filter:url(#drop-shadow-1);}.cls-3,.cls-4{fill:none;}.cls-3,.cls-4,.cls-6{stroke:#8a3ffc;}.cls-3,.cls-5{stroke-width:70px;}.cls-5{fill:#d02670;stroke:#d02670;}.cls-6{fill:#8a3ffc;}</style><filter id="drop-shadow-1" filterUnits="userSpaceOnUse"><feOffset dx="5" dy="5"/><feGaussianBlur result="blur" stdDeviation="15"/><feFlood flood-color="#000" flood-opacity=".75"/><feComposite in2="blur" operator="in"/><feComposite in="SourceGraphic"/></filter></defs><g class="cls-7"><circle class="cls-3" cx="483.66" cy="505" r="260.75"/><circle class="cls-6" cx="88.5" cy="410.5" r="46.5"/><line class="cls-4" x1="231" y1="442" x2="89" y2="411"/><circle class="cls-6" cx="178.5" cy="197.5" r="61.5"/><circle class="cls-6" cx="383" cy="115" r="27"/><circle class="cls-6" cx="702" cy="119" r="78"/><circle class="cls-6" cx="857.5" cy="327.5" r="56.5"/><circle class="cls-6" cx="867.5" cy="755.5" r="57.5"/><circle class="cls-6" cx="656.5" cy="861.5" r="32.5"/><circle class="cls-6" cx="388.5" cy="924.5" r="83.5"/><circle class="cls-6" cx="101" cy="737" r="59"/><circle class="cls-5" cx="413" cy="416" r="58.5"/><circle class="cls-5" cx="597" cy="410" r="12.5"/><circle class="cls-5" cx="412.5" cy="630.5" r="16"/><circle class="cls-5" cx="563.5" cy="588.5" r="35"/><line class="cls-4" x1="178" y1="197" x2="292" y2="302"/><line class="cls-4" x1="383" y1="115" x2="413" y2="244"/><line class="cls-4" x1="702" y1="119" x2="609" y2="271"/><line class="cls-4" x1="857" y1="327" x2="744" y2="384"/><line class="cls-4" x1="867" y1="755" x2="702" y2="648"/><line class="cls-4" x1="650" y1="861" x2="598" y2="755"/><line class="cls-4" x1="388" y1="924" x2="429" y2="760"/><line class="cls-4" x1="101" y1="737" x2="253" y2="646"/><circle class="cls-1" cx="170" cy="170" r="9"/><circle class="cls-1" cx="732.5" cy="109.5" r="21.5"/><circle class="cls-1" cx="838.5" cy="750.5" r="4.5"/><circle class="cls-1" cx="353" cy="947" r="23"/><circle class="cls-1" cx="115.5" cy="751.5" r="14.5"/><circle class="cls-1" cx="844" cy="337" r="10"/><circle class="cls-2" cx="395" cy="427" r="30"/><circle class="cls-2" cx="576" cy="566" r="13"/><circle class="cls-2" cx="391.5" cy="633.5" r="3.5"/></g></svg>